<svg width="7144" height="1503" viewBox="0 0 7144 1503" fill="none" xmlns="http://www.w3.org/2000/svg">
<path fill-rule="evenodd" clip-rule="evenodd" d="M511.62 522.879C483.07 619.129 451.68 826.859 430.66 887.539H129.51C92.17 850.139 0 365.389 0 230.239H215.84C215.84 248.889 276.23 675.989 288.68 727.949C321.97 554.729 359.1 398.049 411.21 230.239H612.01C664.06 398.049 701.24 554.729 734.53 727.949C746.97 675.989 807.24 248.889 807.24 230.239H1023.22C1023.22 365.389 930.99 850.129 893.68 887.539H592.55C571.54 826.859 540.15 619.129 511.62 522.879ZM3117.59 362.739C3063.33 360.649 3028.49 373.739 3013.02 402.219C2997.39 430.709 2990.68 487.449 2992.76 572.679C2991.08 657.659 2998.2 714.169 3013.89 742.189C3029.53 770.239 3064.49 783.079 3118.7 780.869C3170.8 783.079 3204.05 770.239 3218.4 742.189C3232.65 714.169 3238.85 657.659 3236.76 572.679C3238.43 487.449 3232.01 430.699 3217.48 402.219C3203.06 373.739 3169.71 360.649 3117.6 362.739M3112.91 202.119C3211.11 200.939 3285.98 210.319 3337.63 230.139C3389.35 250.059 3424.48 286.869 3443.19 340.609C3461.84 394.459 3470.76 471.709 3469.98 572.559C3471.38 670.759 3462.71 746.719 3443.95 800.329C3425.24 854.059 3390.09 891.369 3338.49 911.969C3286.9 932.699 3212.5 942.549 3115.22 941.489C3019.29 942.299 2945.46 931.889 2893.93 910.129C2842.34 888.469 2806.86 850.599 2787.57 796.739C2768.18 742.909 2758.91 668.099 2759.61 572.559C2758.16 474.699 2766.67 398.859 2784.97 344.879C2803.33 290.919 2838.07 253.399 2889.42 232.329C2940.77 211.259 3015.31 201.189 3112.92 202.119M2270.83 1096.68C2192.27 1095.06 2107.32 1105.35 2084.79 1127.94C2062.21 1150.53 2052.18 1146.58 2054.96 1214.09C2052.59 1281.6 2062.55 1277.43 2085.23 1299.65C2107.89 1321.9 2192.95 1332.09 2271.51 1330.23C2347.02 1332.1 2429.7 1321.9 2450.36 1299.65C2471.21 1277.42 2480.31 1281.6 2477.52 1214.09C2479.89 1146.58 2470.86 1150.53 2449.97 1127.94C2429.07 1105.35 2346.38 1095.06 2270.82 1096.68M2264.62 925.059C2384.7 924.249 2476.31 931.299 2539.53 946.129C2602.76 961.059 2645.72 988.739 2668.48 1029.16C2691.17 1069.68 2702.06 1138.25 2700.9 1214.09C2702.42 1287.87 2691.7 1355.48 2668.76 1395.9C2645.77 1436.2 2602.76 1464.22 2539.53 1479.74C2476.36 1495.26 2385.27 1502.65 2266.3 1501.97C2148.76 1502.54 2058.55 1494.68 1995.49 1478.34C1932.45 1462.01 1889.08 1433.64 1865.51 1393.12C1841.88 1352.6 1830.65 1285.9 1831.63 1214.08C1830.08 1140.43 1840.43 1072.91 1856.02 1032.39C1878.49 991.869 1928.22 963.599 1991.05 947.859C2053.87 931.969 2145.12 924.449 2264.63 925.039M2317.84 354.829C2263.82 352.509 2229.13 366.989 2213.73 398.369C2198.27 429.759 2191.33 433.559 2193.36 527.259C2191.85 621.049 2198.68 624.539 2214.37 655.449C2229.95 686.259 2264.69 700.499 2318.71 697.949C2370.59 700.499 2403.7 686.259 2418.01 655.449C2432.19 624.539 2438.46 621.059 2436.43 527.259C2437.99 433.569 2431.73 429.759 2417.37 398.369C2402.95 366.979 2369.79 352.509 2317.83 354.829M2313.26 204.749C2411.4 203.709 2486.33 213.089 2537.93 232.769C2589.5 252.689 2624.76 289.399 2643.47 343.259C2662.18 396.979 2670.97 426.389 2670.06 527.159C2671.44 625.349 2662.64 653.359 2643.94 707.079C2625.29 760.839 2590.08 797.999 2538.51 818.729C2486.91 839.359 2412.45 849.179 2315.17 848.269C2219.28 849.079 2145.53 838.519 2093.94 816.879C2042.35 795.099 2006.9 757.249 1987.57 703.389C1968.17 649.549 1959.02 622.789 1959.77 527.159C1958.38 429.409 1966.9 401.489 1985.25 347.529C2003.55 293.569 2038.4 256.049 2089.76 234.979C2141.11 213.909 2215.63 203.829 2313.26 204.749ZM2660.18 0.148962C2706.73 -1.23104 2736.42 6.97896 2749.34 24.709C2762.26 42.419 2767.87 44.499 2766.42 97.549C2768.16 150.569 2762.54 152.559 2749.76 169.929C2737 187.419 2707.31 195.399 2660.76 194.019C2612.34 195.399 2581.2 187.409 2567.24 169.929C2553.3 152.569 2547.1 150.579 2548.55 97.549C2546.81 44.499 2552.89 42.409 2566.85 24.709C2580.63 6.97896 2611.77 -1.22104 2660.19 0.148962M1355.6 463.239H1609.66C1609.88 412.059 1599.22 379.189 1577.59 365.959C1555.87 352.769 1523.22 347.219 1479.62 349.059C1434.55 347.909 1402.9 355.089 1384.54 370.599C1366.24 386.119 1356.58 416.699 1355.6 463.239ZM1612.61 691.739H1866.28C1865.74 742.919 1856.14 788.079 1837.44 821.089C1818.85 854.199 1792.51 878.979 1758.4 896.459C1724.31 913.259 1683.78 924.359 1636.7 930.399C1589.8 936.289 1537.58 939.069 1480.2 938.599C1377.59 939.069 1298.28 927.159 1242.17 902.939C1186.18 878.849 1147.57 839.729 1126.2 785.519C1104.87 731.439 1095.03 659.649 1096.73 570.359C1096.14 478.409 1106.5 405.349 1127.63 351.149C1148.95 296.959 1187.69 258.169 1243.84 234.889C1300.06 211.609 1380.49 200.149 1484.94 200.729C1582.93 199.919 1659.87 210.109 1716.04 231.179C1772.13 252.379 1811.69 289.999 1834.61 343.859C1857.6 397.709 1868.43 472.049 1867.09 569.209L1866.81 607.769H1354.56C1352.82 673.079 1360.47 714.179 1377.6 738.269C1394.69 762.249 1429.26 774.269 1481.31 773.239C1521.61 774.519 1553.39 771.029 1576.72 760.859C1600 750.539 1611.94 724.369 1612.63 691.729" fill="#444446"/>
<path d="M3851.68 196.199L3843.82 312.459H3846.94C3900.38 213.459 3949.11 188.309 4084.24 188.309C4175.38 188.309 4244.51 208.689 4285.39 249.589C4341.96 303.079 4362.39 380.099 4362.39 549.749C4362.39 730.499 4343.52 812.139 4286.94 873.509C4246.06 919.039 4184.8 937.899 4079.48 937.899C3950.67 937.899 3897.25 908.039 3861.11 813.749H3857.93V1244.32H3642.66V196.199H3851.67H3851.68ZM3857.94 551.369C3857.94 735.139 3884.69 774.389 4005.68 774.389C4126.67 774.389 4150.25 738.389 4150.25 567.019C4150.25 380.099 4128.25 347.089 4002.49 347.089C3876.73 347.089 3857.95 383.219 3857.95 551.369" fill="#1686F7"/>
<path d="M4709.96 196.199L4698.96 307.709H4702.09C4749.21 216.579 4797.97 186.709 4895.36 186.709C4992.75 186.709 5049.37 224.459 5072.93 303.079C5083.92 340.719 5085.55 364.339 5085.55 499.489H4893.78V469.599C4893.78 373.719 4878.09 348.599 4816.77 348.599C4769.63 348.599 4735.06 370.599 4719.39 411.469C4711.52 433.469 4709.95 445.989 4709.95 502.609V930.019H4500.93V196.199H4709.95H4709.96Z" fill="#1686F7"/>
<path d="M5816.41 254.339C5868.28 306.219 5888.71 381.599 5888.71 535.629C5888.71 871.899 5829.02 937.919 5528.88 937.919C5354.41 937.919 5264.84 906.529 5219.28 832.659C5183.14 771.409 5175.27 716.399 5175.27 530.879C5175.27 376.859 5195.72 303.089 5253.85 251.229C5307.29 202.469 5374.86 188.329 5541.44 188.329C5697.01 188.329 5764.58 204.079 5816.42 254.349M5387.43 554.509C5387.43 747.769 5406.3 779.149 5530.44 779.149C5654.58 779.149 5676.58 747.769 5676.58 543.509C5676.58 378.479 5654.57 347.109 5533.58 347.109C5412.59 347.109 5387.43 376.859 5387.43 554.509Z" fill="#1686F7"/>
<path fill-rule="evenodd" clip-rule="evenodd" d="M6542.7 514.58L6466.64 641.54H6191.3C6121.31 641.54 6064 584.58 6064 514.18C6064 478.84 6078.22 447.06 6101.4 424.27C6124.56 401.14 6156.3 386.84 6191.3 386.84H6466.24L6542.7 514.58Z" fill="#1686F7"/>
<path fill-rule="evenodd" clip-rule="evenodd" d="M7143.06 514.17C7143.06 549.52 7128.84 581.32 7105.66 604.03C7082.88 627.21 7050.76 641.53 7015.75 641.53H6763.58L6805.86 571.14C6826.65 536.09 6826.65 492.65 6805.86 457.6L6763.58 386.82H7015.75C7086.14 386.82 7143.06 443.77 7143.06 514.16" fill="#1686F7"/>
<path fill-rule="evenodd" clip-rule="evenodd" d="M6805.86 571.15L6763.56 641.54H6466.64L6542.7 514.59L6466.25 386.83H6763.56L6805.86 457.62C6826.63 492.65 6826.63 536.1 6805.86 571.15Z" fill="#0169E6"/>
<path fill-rule="evenodd" clip-rule="evenodd" d="M6763.56 641.54L6691.2 762.28L6619.57 881.85C6596 921.73 6553.71 943.74 6510.18 943.74C6487.81 943.74 6465.45 938.02 6445.1 925.79C6384.89 889.64 6364.95 811.54 6401.19 750.93L6466.64 641.55H6763.56V641.54Z" fill="#10C8ED"/>
<path fill-rule="evenodd" clip-rule="evenodd" d="M6763.56 386.83H6466.25L6401.19 277.84C6364.95 217.6 6384.9 139.52 6445.1 103.37C6465.45 91.13 6488.21 85 6510.57 85C6553.71 85 6596 107.41 6619.56 147.29L6691.19 266.46L6763.55 386.83H6763.56Z" fill="#10C8ED"/>
</svg>
